HIERARCHY
ROOT Hips
{
 OFFSET 0.000000 0.000000 0.000000
 CHANNELS 6 Xposition Yposition Zposition Yrotation Xrotation Zrotation
 JOINT Chest
 {
  OFFSET 0.000000 10.354800 0.006500
  CHANNELS 3 Yrotation Xrotation Zrotation
  JOINT Chest2
  {
   OFFSET 0.000000 10.435800 -0.013200
   CHANNELS 3 Yrotation Xrotation Zrotation
   JOINT Chest3
   {
    OFFSET 0.000000 10.393700 0.000000
    CHANNELS 3 Yrotation Xrotation Zrotation
    JOINT Chest4
    {
     OFFSET 0.000000 10.383100 0.000000
     CHANNELS 3 Yrotation Xrotation Zrotation
     JOINT Neck
     {
      OFFSET 0.000000 15.694000 0.000000
      CHANNELS 3 Yrotation Xrotation Zrotation
      JOINT Head
      {
       OFFSET 0.000000 9.711000 -0.028000
       CHANNELS 3 Yrotation Xrotation Zrotation
       End Site
       {
        OFFSET 0.000000 18.578700 -0.014800
       }
      }
     }
     JOINT RightCollar
     {
      OFFSET -3.157200 10.367500 0.000000
      CHANNELS 3 Yrotation Xrotation Zrotation
      JOINT RightShoulder
      {
       OFFSET -14.482500 0.000000 0.000000
       CHANNELS 3 Yrotation Xrotation Zrotation
       JOINT RightElbow
       {
        OFFSET 0.000000 -31.707800 0.000000
        CHANNELS 3 Yrotation Xrotation Zrotation
        JOINT RightWrist
        {
         OFFSET 0.000000 -25.659300 0.000000
         CHANNELS 3 Yrotation Xrotation Zrotation
         End Site
         {
          OFFSET 0.000000 -18.994300 0.000000
         }
        }
       }
      }
     }
     JOINT LeftCollar
     {
      OFFSET 3.157200 10.367500 0.000000
      CHANNELS 3 Yrotation Xrotation Zrotation
      JOINT LeftShoulder
      {
       OFFSET 14.482500 0.000000 0.000000
       CHANNELS 3 Yrotation Xrotation Zrotation
       JOINT LeftElbow
       {
        OFFSET 0.000000 -31.707800 0.000000
        CHANNELS 3 Yrotation Xrotation Zrotation
        JOINT LeftWrist
        {
         OFFSET 0.000000 -25.659300 0.000000
         CHANNELS 3 Yrotation Xrotation Zrotation
         End Site
         {
          OFFSET 0.000000 -18.994300 0.000000
         }
        }
       }
      }
     }
    }
   }
  }
 }
 JOINT RightHip
 {
  OFFSET -8.365600 -0.032100 -0.003200
  CHANNELS 3 Yrotation Xrotation Zrotation
  JOINT RightKnee
  {
   OFFSET 0.000000 -43.980000 0.003100
   CHANNELS 3 Yrotation Xrotation Zrotation
   JOINT RightAnkle
   {
    OFFSET 0.000000 -42.882800 0.005200
    CHANNELS 3 Yrotation Xrotation Zrotation
    JOINT RightToe
    {
     OFFSET 0.000000 -4.915500 10.826300
     CHANNELS 3 Yrotation Xrotation Zrotation
     End Site
     {
      OFFSET 0.000000 -1.517500 6.175900
     }
    }
   }
  }
 }
 JOINT LeftHip
 {
  OFFSET 8.365600 -0.032100 -0.003200
  CHANNELS 3 Yrotation Xrotation Zrotation
  JOINT LeftKnee
  {
   OFFSET 0.000000 -43.980000 0.003100
   CHANNELS 3 Yrotation Xrotation Zrotation
   JOINT LeftAnkle
   {
    OFFSET 0.000000 -42.882800 0.005200
    CHANNELS 3 Yrotation Xrotation Zrotation
    JOINT LeftToe
    {
     OFFSET 0.000000 -4.915500 10.826300
     CHANNELS 3 Yrotation Xrotation Zrotation
     End Site
     {
      OFFSET 0.000000 -1.517500 6.175900
     }
    }
   }
  }
 }
}
MOTION
Frames: 12
Frame Time: 0.008333
0.000000 91.618600 0.000000 0.000000 -5.767877 0.000000 0.000000 11.653817 0.000000 0.000000 -5.885947 0.000000 0.000000 -0.000000 0.000000 0.000000 -0.000000 0.000000 0.000000 12.528835 0.000000 0.000000 0.711642 0.000000 0.000000 -0.000000 0.000000 0.000000 0.000000 -90.000000 0.000000 -2.309062 0.000000 0.000000 2.309062 0.000000 0.000000 -0.000000 0.000000 0.000000 -0.000000 90.000000 0.000000 -2.309062 0.000000 0.000000 2.309062 0.000000 0.000000 8.520406 0.000000 0.000000 1.905762 0.000000 -0.000000 -4.658285 0.000000 0.000000 -0.000000 0.000000 0.000000 8.520406 0.000000 0.000000 1.905762 0.000000 -0.000000 -4.658285 0.000000 0.000000 -0.000000 0.000000
-4.306108 147.463460 27.556693 173.544555 -23.983797 -3.404429 0.065553 13.631532 3.213315 -0.029251 1.159108 0.278680 -0.040483 1.966728 0.472352 0.002255 12.280190 2.964197 0.773549 20.130149 -4.908753 1.962992 -4.223320 -5.461301 2.342109 3.043274 -2.898727 15.075221 -10.697109 -4.624290 44.351456 -42.690665 -32.943714 -7.325892 -10.442580 -25.668979 -3.564102 5.337007 -0.245643 -7.071243 -10.592833 -0.543089 -55.294558 -41.520198 44.036267 -4.610435 -0.679505 22.972464 5.919331 -49.705901 -1.419731 -154.236682 72.142610 -147.188358 -3.138225 -31.785183 3.486264 0.007514 -0.082207 0.003146 -8.285068 -47.879756 7.832801 163.277096 72.711283 159.860530 -2.791051 -33.313914 0.368058 0.008366 0.054740 -0.001452
-2.469854 140.901943 27.722065 173.561361 -23.983631 -3.433561 0.057757 13.633060 3.236777 -0.027009 1.160594 0.278946 -0.041782 1.968170 0.474478 0.002137 12.281632 2.964575 0.776540 20.131116 -4.910627 1.960332 -4.227645 -5.460982 2.343084 3.043343 -2.902567 15.066671 -10.690128 -4.620880 44.362942 -42.697200 -32.957674 -7.329437 -10.442651 -25.669076 -3.570846 5.332392 -0.244119 -7.068663 -10.593171 -0.543210 -55.291436 -41.519122 44.034910 -4.607866 -0.683917 22.973571 5.876687 -49.713243 -1.387454 -154.256379 72.135347 -147.209520 -3.139028 -31.814090 3.487190 0.004957 -0.060203 0.002250 -8.324633 -47.868089 7.865311 163.261557 72.725122 159.844211 -2.783508 -33.286445 0.367961 0.006779 0.042845 0.003079
-0.954618 135.498661 27.858225 173.581798 -23.985486 -3.475571 0.047618 13.637952 3.273122 -0.025943 1.161877 0.281336 -0.041098 1.966778 0.474545 0.003658 12.283023 2.965411 0.771676 20.128400 -4.914711 1.965226 -4.229182 -5.462251 2.342900 3.047117 -2.906567 15.062430 -10.692069 -4.621679 44.363946 -42.696817 -32.967923 -7.331635 -10.448024 -25.664214 -3.574373 5.335799 -0.250312 -7.075363 -10.602331 -0.534695 -55.282604 -41.519788 44.029309 -4.606688 -0.685890 22.974048 5.819159 -49.718862 -1.337629 -154.268484 72.127936 -147.222181 -3.136935 -31.854418 3.487832 0.000617 -0.023813 0.000280 -8.378334 -47.852218 7.915027 163.243738 72.738839 159.826127 -2.775209 -33.253325 0.366965 0.000824 0.015768 0.000374
0.136572 131.596073 27.956089 173.585435 -23.986943 -3.482102 0.047501 13.640597 3.283472 -0.026726 1.161505 0.279056 -0.040789 1.967312 0.475914 0.004839 12.283558 2.965924 0.770545 20.130807 -4.913751 1.959639 -4.228355 -5.462089 2.339638 3.045591 -2.910745 15.062829 -10.688266 -4.620170 44.364416 -42.703924 -32.974753 -7.326140 -10.444779 -25.653203 -3.575767 5.335551 -0.254365 -7.074287 -10.599718 -0.531939 -55.289961 -41.524165 44.036552 -4.604535 -0.686318 22.962461 5.810173 -49.720592 -1.331583 -154.279917 72.121158 -147.232108 -3.137188 -31.867005 3.486324 0.001784 -0.014946 0.000810 -8.382823 -47.843611 7.921687 163.235262 72.748532 159.818291 -2.772188 -33.244584 0.366493 0.001061 0.008540 0.000482
0.826321 129.131239 28.017885 173.587021 -23.987144 -3.487122 0.048344 13.642090 3.293241 -0.025875 1.160363 0.278539 -0.042717 1.968743 0.473951 0.004959 12.282838 2.964929 0.770629 20.131300 -4.912347 1.957035 -4.227383 -5.462677 2.338792 3.043586 -2.911932 15.054264 -10.672731 -4.618765 44.384796 -42.718426 -32.987859 -7.325171 -10.439360 -25.660554 -3.569687 5.336299 -0.253567 -7.075827 -10.600237 -0.534525 -55.297512 -41.526837 44.038808 -4.602750 -0.680057 22.964519 5.803472 -49.722396 -1.326058 -154.283279 72.118388 -147.236721 -3.135838 -31.873510 3.487313 0.001042 -0.009120 0.000473 -8.390006 -47.835447 7.931278 163.233856 72.756967 159.814016 -2.771230 -33.241229 0.366642 0.001135 0.005410 0.000515
1.205858 127.775353 28.052097 173.590006 -23.983956 -3.489630 0.044760 13.640269 3.294865 -0.026661 1.161616 0.279062 -0.040314 1.967776 0.474362 0.004432 12.282962 2.964314 0.770848 20.137107 -4.913027 1.955157 -4.222445 -5.467298 2.333908 3.047262 -2.908515 15.056097 -10.671114 -4.624446 44.391611 -42.723974 -32.988582 -7.330774 -10.436187 -25.667131 -3.563345 5.337096 -0.251328 -7.078292 -10.602320 -0.537660 -55.297789 -41.520041 44.042773 -4.591451 -0.686009 22.960971 5.795362 -49.726933 -1.326303 -154.291356 72.117514 -147.248098 -3.131455 -31.876463 3.486136 -0.001842 -0.006271 -0.000836 -8.394220 -47.835617 7.932749 163.227104 72.759810 159.809358 -2.768312 -33.238870 0.361854 0.002090 0.002587 0.000949
1.386758 127.129350 28.068797 173.593239 -23.977418 -3.490376 0.043366 13.634990 3.297295 -0.026817 1.161512 0.279306 -0.041756 1.968483 0.471940 0.005696 12.281386 2.968330 0.768136 20.137640 -4.917015 1.955020 -4.221564 -5.468120 2.335807 3.050007 -2.909417 15.051648 -10.670773 -4.627874 44.390032 -42.726338 -32.984434 -7.328687 -10.438081 -25.670974 -3.563635 5.339176 -0.253433 -7.079034 -10.605049 -0.539180 -55.294368 -41.518684 44.042919 -4.586775 -0.686331 22.960479 5.792974 -49.735177 -1.325674 -154.286572 72.117652 -147.246673 -3.133604 -31.875382 3.488629 -0.003028 -0.004670 -0.001375 -8.397675 -47.839262 7.931385 163.218915 72.762961 159.800435 -2.762230 -33.241311 0.356422 0.001994 0.001546 0.000906
1.461067 126.864962 28.075501 173.595439 -23.972627 -3.490236 0.042271 13.634052 3.296323 -0.027026 1.160558 0.279011 -0.043307 1.968421 0.472211 0.002697 12.275646 2.965410 0.773889 20.139889 -4.915198 1.960657 -4.219089 -5.467678 2.343205 3.056873 -2.902950 15.046595 -10.669578 -4.636149 44.388037 -42.734144 -32.980165 -7.329944 -10.440722 -25.672800 -3.555973 5.345542 -0.250007 -7.083704 -10.608142 -0.539093 -55.286650 -41.519932 44.040928 -4.586446 -0.685183 22.959467 5.791736 -49.740977 -1.325387 -154.276741 72.112620 -147.233079 -3.132448 -31.877922 3.486523 -0.000508 -0.003752 -0.000231 -8.395621 -47.841681 7.926340 163.213763 72.766789 159.794674 -2.759427 -33.241206 0.357887 0.000516 0.001752 0.000234
1.487477 126.772854 28.077846 173.594826 -23.968110 -3.490391 0.042722 13.633709 3.297627 -0.027245 1.160439 0.278880 -0.043436 1.966806 0.470858 0.001140 12.275949 2.965366 0.777553 20.138331 -4.914941 1.964504 -4.220811 -5.468343 2.345060 3.057151 -2.901652 15.047317 -10.668000 -4.638699 44.386735 -42.741431 -32.980510 -7.326261 -10.442318 -25.662920 -3.548789 5.346528 -0.251569 -7.086419 -10.611680 -0.538588 -55.285740 -41.520209 44.040404 -4.589105 -0.680345 22.956663 5.790461 -49.748421 -1.322242 -154.271362 72.109996 -147.223825 -3.136002 -31.874231 3.481307 0.001176 -0.003575 0.000534 -8.395730 -47.845143 7.926063 163.204686 72.767189 159.783620 -2.760133 -33.240202 0.359828 -0.000790 0.001111 -0.000359
1.495912 126.745911 28.078465 173.593713 -23.964574 -3.491841 0.043104 13.634934 3.298108 -0.027831 1.158389 0.279112 -0.041663 1.966084 0.471390 -0.000066 12.275607 2.963677 0.779180 20.136906 -4.912309 1.965717 -4.222580 -5.465657 2.346874 3.058165 -2.900608 15.045277 -10.665994 -4.635893 44.386864 -42.747966 -32.980841 -7.320431 -10.443180 -25.661339 -3.543237 5.347507 -0.254333 -7.088517 -10.610861 -0.536019 -55.285112 -41.519749 44.043141 -4.592988 -0.680547 22.952438 5.787323 -49.756663 -1.316447 -154.265987 72.105414 -147.214960 -3.136301 -31.869781 3.475378 0.002936 -0.004738 0.001333 -8.397704 -47.847630 7.928604 163.211900 72.769067 159.789784 -2.753806 -33.238791 0.358074 -0.000485 0.000633 -0.000220
1.498442 126.739317 28.078679 173.592398 -23.960862 -3.492602 0.044342 13.632136 3.299355 -0.025927 1.158964 0.278459 -0.044089 1.966693 0.472267 0.003748 12.274500 2.963663 0.776312 20.139725 -4.910237 1.964429 -4.222429 -5.464184 2.345890 3.061026 -2.901209 15.034854 -10.667856 -4.628118 44.394738 -42.750432 -32.982230 -7.313142 -10.446405 -25.660238 -3.543294 5.346084 -0.258127 -7.089359 -10.607568 -0.538475 -55.285768 -41.513114 44.051602 -4.595760 -0.682645 22.943588 5.785524 -49.764375 -1.311635 -154.261655 72.102924 -147.207815 -3.137317 -31.865986 3.470768 0.004582 -0.005502 0.002080 -8.399529 -47.850084 7.931870 163.217030 72.771831 159.794387 -2.756641 -33.237001 0.358742 -0.000204 0.000502 -0.000092
